<mxfile host="" modified="2020-05-24T15:21:41.060Z" agent="5.0 (X11; Linux x86_64) AppleWebKit/537.36 (KHTML, like Gecko) Code/1.45.0 Chrome/78.0.3904.130 Electron/7.2.4 Safari/537.36" version="13.1.3" etag="lrwgP8mNOWNbAz78NI_h" pages="2">
            <diagram id="diagramid" name="Diagram">
              <mxGraphModel><root><mxCell id="0"/><mxCell id="1" parent="0"/><mxCell id="2" value="TodoApplicationVPC0CDF7F46" style="outlineConnect=0;fontColor=#B3B3B3;gradientColor=#945DF2;gradientDirection=north;fillColor=#5A30B5;strokeColor=#ffffff;dashed=0;verticalLabelPosition=bottom;verticalAlign=top;align=center;html=1;fontSize=12;fontStyle=0;aspect=fixed;shape=mxgraph.aws4.resourceIcon;resIcon=mxgraph.aws4.vpc;" vertex="1" parent="1"><mxGeometry x="1000" y="900" width="50" height="50" as="geometry"/></mxCell><mxCell id="3" value="TodoApplicationVPCPublicSubnet1SubnetEB2A3BA5" style="outlineConnect=0;fontColor=#B3B3B3;gradientColor=#F78E04;gradientDirection=north;fillColor=#D05C17;strokeColor=#ffffff;dashed=0;verticalLabelPosition=bottom;verticalAlign=top;align=center;html=1;fontSize=12;fontStyle=0;aspect=fixed;shape=mxgraph.aws4.resourceIcon;resIcon=mxgraph.aws4.ec2;" vertex="1" parent="1"><mxGeometry x="750" y="625" width="50" height="50" as="geometry"/></mxCell><mxCell id="4" value="TodoApplicationVPCPublicSubnet1RouteTableE31EB012" style="outlineConnect=0;fontColor=#B3B3B3;gradientColor=#945DF2;gradientDirection=north;fillColor=#5A30B5;strokeColor=#ffffff;dashed=0;verticalLabelPosition=bottom;verticalAlign=top;align=center;html=1;fontSize=12;fontStyle=0;aspect=fixed;shape=mxgraph.aws4.resourceIcon;resIcon=mxgraph.aws4.route_table;" vertex="1" parent="1"><mxGeometry x="250" y="50" width="50" height="50" as="geometry"/></mxCell><mxCell id="5" value="TodoApplicationVPCPublicSubnet1RouteTableAssociationC084684F" style="outlineConnect=0;fontColor=#B3B3B3;gradientColor=#945DF2;gradientDirection=north;fillColor=#5A30B5;strokeColor=#ffffff;dashed=0;verticalLabelPosition=bottom;verticalAlign=top;align=center;html=1;fontSize=12;fontStyle=0;aspect=fixed;shape=mxgraph.aws4.resourceIcon;resIcon=mxgraph.aws4.route_table;" vertex="1" parent="1"><mxGeometry y="12.5" width="50" height="50" as="geometry"/></mxCell><mxCell id="6" value="TodoApplicationVPCPublicSubnet1DefaultRoute410638FA" style="outlineConnect=0;fontColor=#B3B3B3;gradientColor=#945DF2;gradientDirection=north;fillColor=#5A30B5;strokeColor=#ffffff;dashed=0;verticalLabelPosition=bottom;verticalAlign=top;align=center;html=1;fontSize=12;fontStyle=0;aspect=fixed;shape=mxgraph.aws4.resourceIcon;resIcon=mxgraph.aws4.route_table;" vertex="1" parent="1"><mxGeometry y="112.5" width="50" height="50" as="geometry"/></mxCell><mxCell id="7" value="TodoApplicationVPCPublicSubnet1EIP59227756" style="outlineConnect=0;fontColor=#B3B3B3;gradientColor=#945DF2;gradientDirection=north;fillColor=#5A30B5;strokeColor=#ffffff;dashed=0;verticalLabelPosition=bottom;verticalAlign=top;align=center;html=1;fontSize=12;fontStyle=0;aspect=fixed;shape=mxgraph.aws4.resourceIcon;resIcon=mxgraph.aws4.elastic_ip_address;" vertex="1" parent="1"><mxGeometry x="500" y="400" width="50" height="50" as="geometry"/></mxCell><mxCell id="8" value="TodoApplicationVPCPublicSubnet1NATGateway27368681" style="outlineConnect=0;fontColor=#B3B3B3;gradientColor=#945DF2;gradientDirection=north;fillColor=#5A30B5;strokeColor=#ffffff;dashed=0;verticalLabelPosition=bottom;verticalAlign=top;align=center;html=1;fontSize=12;fontStyle=0;aspect=fixed;shape=mxgraph.aws4.resourceIcon;resIcon=mxgraph.aws4.nat_gateway;" vertex="1" parent="1"><mxGeometry x="250" y="350" width="50" height="50" as="geometry"/></mxCell><mxCell id="9" value="TodoApplicationVPCPublicSubnet2Subnet7CBD6D0C" style="outlineConnect=0;fontColor=#B3B3B3;gradientColor=#F78E04;gradientDirection=north;fillColor=#D05C17;strokeColor=#ffffff;dashed=0;verticalLabelPosition=bottom;verticalAlign=top;align=center;html=1;fontSize=12;fontStyle=0;aspect=fixed;shape=mxgraph.aws4.resourceIcon;resIcon=mxgraph.aws4.ec2;" vertex="1" parent="1"><mxGeometry x="750" y="775" width="50" height="50" as="geometry"/></mxCell><mxCell id="10" value="TodoApplicationVPCPublicSubnet2RouteTable31495C8A" style="outlineConnect=0;fontColor=#B3B3B3;gradientColor=#945DF2;gradientDirection=north;fillColor=#5A30B5;strokeColor=#ffffff;dashed=0;verticalLabelPosition=bottom;verticalAlign=top;align=center;html=1;fontSize=12;fontStyle=0;aspect=fixed;shape=mxgraph.aws4.resourceIcon;resIcon=mxgraph.aws4.route_table;" vertex="1" parent="1"><mxGeometry x="250" y="250" width="50" height="50" as="geometry"/></mxCell><mxCell id="11" value="TodoApplicationVPCPublicSubnet2RouteTableAssociation5FD94531" style="outlineConnect=0;fontColor=#B3B3B3;gradientColor=#945DF2;gradientDirection=north;fillColor=#5A30B5;strokeColor=#ffffff;dashed=0;verticalLabelPosition=bottom;verticalAlign=top;align=center;html=1;fontSize=12;fontStyle=0;aspect=fixed;shape=mxgraph.aws4.resourceIcon;resIcon=mxgraph.aws4.route_table;" vertex="1" parent="1"><mxGeometry y="337.5" width="50" height="50" as="geometry"/></mxCell><mxCell id="12" value="TodoApplicationVPCPublicSubnet2DefaultRouteA7AD6060" style="outlineConnect=0;fontColor=#B3B3B3;gradientColor=#945DF2;gradientDirection=north;fillColor=#5A30B5;strokeColor=#ffffff;dashed=0;verticalLabelPosition=bottom;verticalAlign=top;align=center;html=1;fontSize=12;fontStyle=0;aspect=fixed;shape=mxgraph.aws4.resourceIcon;resIcon=mxgraph.aws4.route_table;" vertex="1" parent="1"><mxGeometry y="212.5" width="50" height="50" as="geometry"/></mxCell><mxCell id="13" value="TodoApplicationVPCPublicSubnet2EIP4AF444A2" style="outlineConnect=0;fontColor=#B3B3B3;gradientColor=#945DF2;gradientDirection=north;fillColor=#5A30B5;strokeColor=#ffffff;dashed=0;verticalLabelPosition=bottom;verticalAlign=top;align=center;html=1;fontSize=12;fontStyle=0;aspect=fixed;shape=mxgraph.aws4.resourceIcon;resIcon=mxgraph.aws4.elastic_ip_address;" vertex="1" parent="1"><mxGeometry x="500" y="600" width="50" height="50" as="geometry"/></mxCell><mxCell id="14" value="TodoApplicationVPCPublicSubnet2NATGatewayE7A4BC92" style="outlineConnect=0;fontColor=#B3B3B3;gradientColor=#945DF2;gradientDirection=north;fillColor=#5A30B5;strokeColor=#ffffff;dashed=0;verticalLabelPosition=bottom;verticalAlign=top;align=center;html=1;fontSize=12;fontStyle=0;aspect=fixed;shape=mxgraph.aws4.resourceIcon;resIcon=mxgraph.aws4.nat_gateway;" vertex="1" parent="1"><mxGeometry x="250" y="600" width="50" height="50" as="geometry"/></mxCell><mxCell id="15" value="TodoApplicationVPCPrivateSubnet1Subnet6F951122" style="outlineConnect=0;fontColor=#B3B3B3;gradientColor=#F78E04;gradientDirection=north;fillColor=#D05C17;strokeColor=#ffffff;dashed=0;verticalLabelPosition=bottom;verticalAlign=top;align=center;html=1;fontSize=12;fontStyle=0;aspect=fixed;shape=mxgraph.aws4.resourceIcon;resIcon=mxgraph.aws4.ec2;" vertex="1" parent="1"><mxGeometry x="250" y="850" width="50" height="50" as="geometry"/></mxCell><mxCell id="16" value="TodoApplicationVPCPrivateSubnet1RouteTable7929AE88" style="outlineConnect=0;fontColor=#B3B3B3;gradientColor=#945DF2;gradientDirection=north;fillColor=#5A30B5;strokeColor=#ffffff;dashed=0;verticalLabelPosition=bottom;verticalAlign=top;align=center;html=1;fontSize=12;fontStyle=0;aspect=fixed;shape=mxgraph.aws4.resourceIcon;resIcon=mxgraph.aws4.route_table;" vertex="1" parent="1"><mxGeometry x="250" y="500" width="50" height="50" as="geometry"/></mxCell><mxCell id="17" value="TodoApplicationVPCPrivateSubnet1RouteTableAssociationB13D4BD3" style="outlineConnect=0;fontColor=#B3B3B3;gradientColor=#945DF2;gradientDirection=north;fillColor=#5A30B5;strokeColor=#ffffff;dashed=0;verticalLabelPosition=bottom;verticalAlign=top;align=center;html=1;fontSize=12;fontStyle=0;aspect=fixed;shape=mxgraph.aws4.resourceIcon;resIcon=mxgraph.aws4.route_table;" vertex="1" parent="1"><mxGeometry y="775" width="50" height="50" as="geometry"/></mxCell><mxCell id="18" value="TodoApplicationVPCPrivateSubnet1DefaultRoute6E694A98" style="outlineConnect=0;fontColor=#B3B3B3;gradientColor=#945DF2;gradientDirection=north;fillColor=#5A30B5;strokeColor=#ffffff;dashed=0;verticalLabelPosition=bottom;verticalAlign=top;align=center;html=1;fontSize=12;fontStyle=0;aspect=fixed;shape=mxgraph.aws4.resourceIcon;resIcon=mxgraph.aws4.route_table;" vertex="1" parent="1"><mxGeometry y="437.5" width="50" height="50" as="geometry"/></mxCell><mxCell id="19" value="TodoApplicationVPCPrivateSubnet2Subnet09B93FA4" style="outlineConnect=0;fontColor=#B3B3B3;gradientColor=#F78E04;gradientDirection=north;fillColor=#D05C17;strokeColor=#ffffff;dashed=0;verticalLabelPosition=bottom;verticalAlign=top;align=center;html=1;fontSize=12;fontStyle=0;aspect=fixed;shape=mxgraph.aws4.resourceIcon;resIcon=mxgraph.aws4.ec2;" vertex="1" parent="1"><mxGeometry x="250" y="950" width="50" height="50" as="geometry"/></mxCell><mxCell id="20" value="TodoApplicationVPCPrivateSubnet2RouteTable0C4E191D" style="outlineConnect=0;fontColor=#B3B3B3;gradientColor=#945DF2;gradientDirection=north;fillColor=#5A30B5;strokeColor=#ffffff;dashed=0;verticalLabelPosition=bottom;verticalAlign=top;align=center;html=1;fontSize=12;fontStyle=0;aspect=fixed;shape=mxgraph.aws4.resourceIcon;resIcon=mxgraph.aws4.route_table;" vertex="1" parent="1"><mxGeometry x="250" y="750" width="50" height="50" as="geometry"/></mxCell><mxCell id="21" value="TodoApplicationVPCPrivateSubnet2RouteTableAssociation8CA4BAC8" style="outlineConnect=0;fontColor=#B3B3B3;gradientColor=#945DF2;gradientDirection=north;fillColor=#5A30B5;strokeColor=#ffffff;dashed=0;verticalLabelPosition=bottom;verticalAlign=top;align=center;html=1;fontSize=12;fontStyle=0;aspect=fixed;shape=mxgraph.aws4.resourceIcon;resIcon=mxgraph.aws4.route_table;" vertex="1" parent="1"><mxGeometry y="875" width="50" height="50" as="geometry"/></mxCell><mxCell id="22" value="TodoApplicationVPCPrivateSubnet2DefaultRoute0E06BA0A" style="outlineConnect=0;fontColor=#B3B3B3;gradientColor=#945DF2;gradientDirection=north;fillColor=#5A30B5;strokeColor=#ffffff;dashed=0;verticalLabelPosition=bottom;verticalAlign=top;align=center;html=1;fontSize=12;fontStyle=0;aspect=fixed;shape=mxgraph.aws4.resourceIcon;resIcon=mxgraph.aws4.route_table;" vertex="1" parent="1"><mxGeometry y="675" width="50" height="50" as="geometry"/></mxCell><mxCell id="23" value="TodoApplicationVPCIGW6855E49E" style="outlineConnect=0;fontColor=#B3B3B3;gradientColor=#F78E04;gradientDirection=north;fillColor=#D05C17;strokeColor=#ffffff;dashed=0;verticalLabelPosition=bottom;verticalAlign=top;align=center;html=1;fontSize=12;fontStyle=0;aspect=fixed;shape=mxgraph.aws4.resourceIcon;resIcon=mxgraph.aws4.ec2;" vertex="1" parent="1"><mxGeometry x="250" y="150" width="50" height="50" as="geometry"/></mxCell><mxCell id="24" value="TodoApplicationVPCVPCGW31DE62DB" style="outlineConnect=0;fontColor=#B3B3B3;gradientColor=#F78E04;gradientDirection=north;fillColor=#D05C17;strokeColor=#ffffff;dashed=0;verticalLabelPosition=bottom;verticalAlign=top;align=center;html=1;fontSize=12;fontStyle=0;aspect=fixed;shape=mxgraph.aws4.resourceIcon;resIcon=mxgraph.aws4.ec2;" vertex="1" parent="1"><mxGeometry y="537.5" width="50" height="50" as="geometry"/></mxCell><mxCell id="25" value="ToDoBucketStack23850757" style="outlineConnect=0;fontColor=#B3B3B3;gradientColor=#60A337;gradientDirection=north;fillColor=#277116;strokeColor=#ffffff;dashed=0;verticalLabelPosition=bottom;verticalAlign=top;align=center;html=1;fontSize=12;fontStyle=0;aspect=fixed;shape=mxgraph.aws4.resourceIcon;resIcon=mxgraph.aws4.s3;" vertex="1" parent="1"><mxGeometry x="500" y="2300" width="50" height="50" as="geometry"/></mxCell><mxCell id="26" value="TodoCluster37AC706D" style="outlineConnect=0;fontColor=#B3B3B3;gradientColor=#F78E04;gradientDirection=north;fillColor=#D05C17;strokeColor=#ffffff;dashed=0;verticalLabelPosition=bottom;verticalAlign=top;align=center;html=1;fontSize=12;fontStyle=0;aspect=fixed;shape=mxgraph.aws4.resourceIcon;resIcon=mxgraph.aws4.ecs;" vertex="1" parent="1"><mxGeometry x="250" y="1050" width="50" height="50" as="geometry"/></mxCell><mxCell id="27" value="DnsTodoApiUserNamespace463EF893" style="outlineConnect=0;fontColor=#B3B3B3;gradientColor=#aaaaaa;gradientDirection=north;fillColor=#aaaaaa;strokeColor=#ffffff;dashed=0;verticalLabelPosition=bottom;verticalAlign=top;align=center;html=1;fontSize=12;fontStyle=0;aspect=fixed;shape=mxgraph.aws4.resourceIcon;resIcon=mxgraph.aws4.servicediscovery;" vertex="1" parent="1"><mxGeometry x="500" y="1250" width="50" height="50" as="geometry"/></mxCell><mxCell id="28" value="ecsTaskExecutionRole34F54B99" style="outlineConnect=0;fontColor=#B3B3B3;gradientColor=#F54749;gradientDirection=north;fillColor=#C7131F;strokeColor=#ffffff;dashed=0;verticalLabelPosition=bottom;verticalAlign=top;align=center;html=1;fontSize=12;fontStyle=0;aspect=fixed;shape=mxgraph.aws4.resourceIcon;resIcon=mxgraph.aws4.role;" vertex="1" parent="1"><mxGeometry x="500" y="1150" width="50" height="50" as="geometry"/></mxCell><mxCell id="29" value="apiUserTaskDefD02E79BF" style="outlineConnect=0;fontColor=#B3B3B3;gradientColor=#F78E04;gradientDirection=north;fillColor=#D05C17;strokeColor=#ffffff;dashed=0;verticalLabelPosition=bottom;verticalAlign=top;align=center;html=1;fontSize=12;fontStyle=0;aspect=fixed;shape=mxgraph.aws4.resourceIcon;resIcon=mxgraph.aws4.ecs;" vertex="1" parent="1"><mxGeometry x="250" y="1250" width="50" height="50" as="geometry"/></mxCell><mxCell id="30" value="apiUserTaskDefExecutionRole08AA7C2E" style="outlineConnect=0;fontColor=#B3B3B3;gradientColor=#F54749;gradientDirection=north;fillColor=#C7131F;strokeColor=#ffffff;dashed=0;verticalLabelPosition=bottom;verticalAlign=top;align=center;html=1;fontSize=12;fontStyle=0;aspect=fixed;shape=mxgraph.aws4.resourceIcon;resIcon=mxgraph.aws4.role;" vertex="1" parent="1"><mxGeometry x="500" y="1050" width="50" height="50" as="geometry"/></mxCell><mxCell id="31" value="apiUserTaskDefExecutionRoleDefaultPolicyF5A7F1AE" style="outlineConnect=0;fontColor=#B3B3B3;gradientColor=#F54749;gradientDirection=north;fillColor=#C7131F;strokeColor=#ffffff;dashed=0;verticalLabelPosition=bottom;verticalAlign=top;align=center;html=1;fontSize=12;fontStyle=0;aspect=fixed;shape=mxgraph.aws4.resourceIcon;resIcon=mxgraph.aws4.identity_and_access_management;" vertex="1" parent="1"><mxGeometry x="250" y="1150" width="50" height="50" as="geometry"/></mxCell><mxCell id="32" value="apiUserLogGroup59208C7F" style="outlineConnect=0;fontColor=#B3B3B3;gradientColor=#F34482;gradientDirection=north;fillColor=#BC1356;strokeColor=#ffffff;dashed=0;verticalLabelPosition=bottom;verticalAlign=top;align=center;html=1;fontSize=12;fontStyle=0;aspect=fixed;shape=mxgraph.aws4.resourceIcon;resIcon=mxgraph.aws4.cloudwatch;" vertex="1" parent="1"><mxGeometry x="500" y="950" width="50" height="50" as="geometry"/></mxCell><mxCell id="33" value="apiUserSecurityGroup7FE4102E" style="outlineConnect=0;fontColor=#B3B3B3;gradientColor=#F78E04;gradientDirection=north;fillColor=#D05C17;strokeColor=#ffffff;dashed=0;verticalLabelPosition=bottom;verticalAlign=top;align=center;html=1;fontSize=12;fontStyle=0;aspect=fixed;shape=mxgraph.aws4.resourceIcon;resIcon=mxgraph.aws4.ec2;" vertex="1" parent="1"><mxGeometry x="250" y="1450" width="50" height="50" as="geometry"/></mxCell><mxCell id="34" value="apiUserSecurityGroupfromCdkTaStackhttpapiUserInternalALBSecurityGroup9665D31A8027E4BA55" style="outlineConnect=0;fontColor=#B3B3B3;gradientColor=#F78E04;gradientDirection=north;fillColor=#D05C17;strokeColor=#ffffff;dashed=0;verticalLabelPosition=bottom;verticalAlign=top;align=center;html=1;fontSize=12;fontStyle=0;aspect=fixed;shape=mxgraph.aws4.resourceIcon;resIcon=mxgraph.aws4.ec2;" vertex="1" parent="1"><mxGeometry y="1325" width="50" height="50" as="geometry"/></mxCell><mxCell id="35" value="apiUserService90255981" style="outlineConnect=0;fontColor=#B3B3B3;gradientColor=#F78E04;gradientDirection=north;fillColor=#D05C17;strokeColor=#ffffff;dashed=0;verticalLabelPosition=bottom;verticalAlign=top;align=center;html=1;fontSize=12;fontStyle=0;aspect=fixed;shape=mxgraph.aws4.resourceIcon;resIcon=mxgraph.aws4.ecs;" vertex="1" parent="1"><mxGeometry y="1225" width="50" height="50" as="geometry"/></mxCell><mxCell id="36" value="apiUserServiceCloudmapService5660F332" style="outlineConnect=0;fontColor=#B3B3B3;gradientColor=#aaaaaa;gradientDirection=north;fillColor=#aaaaaa;strokeColor=#ffffff;dashed=0;verticalLabelPosition=bottom;verticalAlign=top;align=center;html=1;fontSize=12;fontStyle=0;aspect=fixed;shape=mxgraph.aws4.resourceIcon;resIcon=mxgraph.aws4.servicediscovery;" vertex="1" parent="1"><mxGeometry x="250" y="1350" width="50" height="50" as="geometry"/></mxCell><mxCell id="37" value="httpapiUserInternalALB11D35DC1" style="outlineConnect=0;fontColor=#B3B3B3;gradientColor=#aaaaaa;gradientDirection=north;fillColor=#aaaaaa;strokeColor=#ffffff;dashed=0;verticalLabelPosition=bottom;verticalAlign=top;align=center;html=1;fontSize=12;fontStyle=0;aspect=fixed;shape=mxgraph.aws4.resourceIcon;resIcon=mxgraph.aws4.elasticloadbalancingv2;" vertex="1" parent="1"><mxGeometry x="500" y="1500" width="50" height="50" as="geometry"/></mxCell><mxCell id="38" value="httpapiUserInternalALBSecurityGroup78E5B605" style="outlineConnect=0;fontColor=#B3B3B3;gradientColor=#F78E04;gradientDirection=north;fillColor=#D05C17;strokeColor=#ffffff;dashed=0;verticalLabelPosition=bottom;verticalAlign=top;align=center;html=1;fontSize=12;fontStyle=0;aspect=fixed;shape=mxgraph.aws4.resourceIcon;resIcon=mxgraph.aws4.ec2;" vertex="1" parent="1"><mxGeometry x="750" y="1350" width="50" height="50" as="geometry"/></mxCell><mxCell id="39" value="httpapiUserInternalALBSecurityGrouptoCdkTaStackapiUserSecurityGroup5C8B8818806A706628" style="outlineConnect=0;fontColor=#B3B3B3;gradientColor=#F78E04;gradientDirection=north;fillColor=#D05C17;strokeColor=#ffffff;dashed=0;verticalLabelPosition=bottom;verticalAlign=top;align=center;html=1;fontSize=12;fontStyle=0;aspect=fixed;shape=mxgraph.aws4.resourceIcon;resIcon=mxgraph.aws4.ec2;" vertex="1" parent="1"><mxGeometry y="1612.5" width="50" height="50" as="geometry"/></mxCell><mxCell id="40" value="httpapiUserInternalALBhttpapiListener3EE77363" style="outlineConnect=0;fontColor=#B3B3B3;gradientColor=#aaaaaa;gradientDirection=north;fillColor=#aaaaaa;strokeColor=#ffffff;dashed=0;verticalLabelPosition=bottom;verticalAlign=top;align=center;html=1;fontSize=12;fontStyle=0;aspect=fixed;shape=mxgraph.aws4.resourceIcon;resIcon=mxgraph.aws4.elasticloadbalancingv2;" vertex="1" parent="1"><mxGeometry x="250" y="1700" width="50" height="50" as="geometry"/></mxCell><mxCell id="41" value="httpapiUserInternalALBhttpapiListenerapiUserTargetGroupGroup4E80C0FF" style="outlineConnect=0;fontColor=#B3B3B3;gradientColor=#aaaaaa;gradientDirection=north;fillColor=#aaaaaa;strokeColor=#ffffff;dashed=0;verticalLabelPosition=bottom;verticalAlign=top;align=center;html=1;fontSize=12;fontStyle=0;aspect=fixed;shape=mxgraph.aws4.resourceIcon;resIcon=mxgraph.aws4.elasticloadbalancingv2;" vertex="1" parent="1"><mxGeometry x="250" y="1600" width="50" height="50" as="geometry"/></mxCell><mxCell id="42" value="httpapiUserInternalALBhttpapiListenerapiUserTargetGroupRuleE8AEE55A" style="outlineConnect=0;fontColor=#B3B3B3;gradientColor=#aaaaaa;gradientDirection=north;fillColor=#aaaaaa;strokeColor=#ffffff;dashed=0;verticalLabelPosition=bottom;verticalAlign=top;align=center;html=1;fontSize=12;fontStyle=0;aspect=fixed;shape=mxgraph.aws4.resourceIcon;resIcon=mxgraph.aws4.elasticloadbalancingv2;" vertex="1" parent="1"><mxGeometry y="1425" width="50" height="50" as="geometry"/></mxCell><mxCell id="43" value="HttpVpcLink" style="outlineConnect=0;fontColor=#B3B3B3;gradientColor=#945DF2;gradientDirection=north;fillColor=#5A30B5;strokeColor=#ffffff;dashed=0;verticalLabelPosition=bottom;verticalAlign=top;align=center;html=1;fontSize=12;fontStyle=0;aspect=fixed;shape=mxgraph.aws4.resourceIcon;resIcon=mxgraph.aws4.api_gateway;" vertex="1" parent="1"><mxGeometry y="975" width="50" height="50" as="geometry"/></mxCell><mxCell id="44" value="TodoTable585F1D6B" style="outlineConnect=0;fontColor=#B3B3B3;gradientColor=#4D72F3;gradientDirection=north;fillColor=#3334B9;strokeColor=#ffffff;dashed=0;verticalLabelPosition=bottom;verticalAlign=top;align=center;html=1;fontSize=12;fontStyle=0;aspect=fixed;shape=mxgraph.aws4.resourceIcon;resIcon=mxgraph.aws4.dynamodb;" vertex="1" parent="1"><mxGeometry x="500" y="2400" width="50" height="50" as="geometry"/></mxCell><mxCell id="45" value="ApiLambdaServiceRole1CC7D0F3" style="outlineConnect=0;fontColor=#B3B3B3;gradientColor=#F54749;gradientDirection=north;fillColor=#C7131F;strokeColor=#ffffff;dashed=0;verticalLabelPosition=bottom;verticalAlign=top;align=center;html=1;fontSize=12;fontStyle=0;aspect=fixed;shape=mxgraph.aws4.resourceIcon;resIcon=mxgraph.aws4.role;" vertex="1" parent="1"><mxGeometry x="500" y="2500" width="50" height="50" as="geometry"/></mxCell><mxCell id="46" value="ApiLambdaServiceRoleDefaultPolicyF1B57697" style="outlineConnect=0;fontColor=#B3B3B3;gradientColor=#F54749;gradientDirection=north;fillColor=#C7131F;strokeColor=#ffffff;dashed=0;verticalLabelPosition=bottom;verticalAlign=top;align=center;html=1;fontSize=12;fontStyle=0;aspect=fixed;shape=mxgraph.aws4.resourceIcon;resIcon=mxgraph.aws4.identity_and_access_management;" vertex="1" parent="1"><mxGeometry x="250" y="2300" width="50" height="50" as="geometry"/></mxCell><mxCell id="47" value="ApiLambda91D2282D" style="outlineConnect=0;fontColor=#B3B3B3;gradientColor=#F78E04;gradientDirection=north;fillColor=#D05C17;strokeColor=#ffffff;dashed=0;verticalLabelPosition=bottom;verticalAlign=top;align=center;html=1;fontSize=12;fontStyle=0;aspect=fixed;shape=mxgraph.aws4.resourceIcon;resIcon=mxgraph.aws4.lambda;" vertex="1" parent="1"><mxGeometry x="250" y="2400" width="50" height="50" as="geometry"/></mxCell><mxCell id="48" value="ToDoApiCB50405F" style="outlineConnect=0;fontColor=#B3B3B3;gradientColor=#945DF2;gradientDirection=north;fillColor=#5A30B5;strokeColor=#ffffff;dashed=0;verticalLabelPosition=bottom;verticalAlign=top;align=center;html=1;fontSize=12;fontStyle=0;aspect=fixed;shape=mxgraph.aws4.resourceIcon;resIcon=mxgraph.aws4.api_gateway;" vertex="1" parent="1"><mxGeometry x="750" y="2575" width="50" height="50" as="geometry"/></mxCell><mxCell id="49" value="ToDoApiCloudWatchRole5C83FD39" style="outlineConnect=0;fontColor=#B3B3B3;gradientColor=#F54749;gradientDirection=north;fillColor=#C7131F;strokeColor=#ffffff;dashed=0;verticalLabelPosition=bottom;verticalAlign=top;align=center;html=1;fontSize=12;fontStyle=0;aspect=fixed;shape=mxgraph.aws4.resourceIcon;resIcon=mxgraph.aws4.role;" vertex="1" parent="1"><mxGeometry x="250" y="1900" width="50" height="50" as="geometry"/></mxCell><mxCell id="50" value="ToDoApiAccount0BCCB737" style="outlineConnect=0;fontColor=#B3B3B3;gradientColor=#945DF2;gradientDirection=north;fillColor=#5A30B5;strokeColor=#ffffff;dashed=0;verticalLabelPosition=bottom;verticalAlign=top;align=center;html=1;fontSize=12;fontStyle=0;aspect=fixed;shape=mxgraph.aws4.resourceIcon;resIcon=mxgraph.aws4.api_gateway;" vertex="1" parent="1"><mxGeometry y="1900" width="50" height="50" as="geometry"/></mxCell><mxCell id="51" value="ToDoApiDeployment903D5882d9f6d92958b8dc68d0e64226e9f1bf02" style="outlineConnect=0;fontColor=#B3B3B3;gradientColor=#945DF2;gradientDirection=north;fillColor=#5A30B5;strokeColor=#ffffff;dashed=0;verticalLabelPosition=bottom;verticalAlign=top;align=center;html=1;fontSize=12;fontStyle=0;aspect=fixed;shape=mxgraph.aws4.resourceIcon;resIcon=mxgraph.aws4.api_gateway;" vertex="1" parent="1"><mxGeometry x="500" y="2150" width="50" height="50" as="geometry"/></mxCell><mxCell id="52" value="ToDoApiDeploymentStageprod6F950C85" style="outlineConnect=0;fontColor=#B3B3B3;gradientColor=#945DF2;gradientDirection=north;fillColor=#5A30B5;strokeColor=#ffffff;dashed=0;verticalLabelPosition=bottom;verticalAlign=top;align=center;html=1;fontSize=12;fontStyle=0;aspect=fixed;shape=mxgraph.aws4.resourceIcon;resIcon=mxgraph.aws4.api_gateway;" vertex="1" parent="1"><mxGeometry x="250" y="2200" width="50" height="50" as="geometry"/></mxCell><mxCell id="53" value="ToDoApiproxy98DAB61A" style="outlineConnect=0;fontColor=#B3B3B3;gradientColor=#945DF2;gradientDirection=north;fillColor=#5A30B5;strokeColor=#ffffff;dashed=0;verticalLabelPosition=bottom;verticalAlign=top;align=center;html=1;fontSize=12;fontStyle=0;aspect=fixed;shape=mxgraph.aws4.resourceIcon;resIcon=mxgraph.aws4.api_gateway;" vertex="1" parent="1"><mxGeometry x="250" y="2550" width="50" height="50" as="geometry"/></mxCell><mxCell id="54" value="ToDoApiproxyANYApiPermissionCdkTaStackToDoApi27093C08ANYproxy3318D2D3" style="outlineConnect=0;fontColor=#B3B3B3;gradientColor=#F54749;gradientDirection=north;fillColor=#C7131F;strokeColor=#ffffff;dashed=0;verticalLabelPosition=bottom;verticalAlign=top;align=center;html=1;fontSize=12;fontStyle=0;aspect=fixed;shape=mxgraph.aws4.resourceIcon;resIcon=mxgraph.aws4.policy;" vertex="1" parent="1"><mxGeometry y="2250" width="50" height="50" as="geometry"/></mxCell><mxCell id="55" value="ToDoApiproxyANYApiPermissionTestCdkTaStackToDoApi27093C08ANYproxyC87E1EF2" style="outlineConnect=0;fontColor=#B3B3B3;gradientColor=#F54749;gradientDirection=north;fillColor=#C7131F;strokeColor=#ffffff;dashed=0;verticalLabelPosition=bottom;verticalAlign=top;align=center;html=1;fontSize=12;fontStyle=0;aspect=fixed;shape=mxgraph.aws4.resourceIcon;resIcon=mxgraph.aws4.policy;" vertex="1" parent="1"><mxGeometry y="2150" width="50" height="50" as="geometry"/></mxCell><mxCell id="56" value="ToDoApiproxyANYE62D66E9" style="outlineConnect=0;fontColor=#B3B3B3;gradientColor=#945DF2;gradientDirection=north;fillColor=#5A30B5;strokeColor=#ffffff;dashed=0;verticalLabelPosition=bottom;verticalAlign=top;align=center;html=1;fontSize=12;fontStyle=0;aspect=fixed;shape=mxgraph.aws4.resourceIcon;resIcon=mxgraph.aws4.api_gateway;" vertex="1" parent="1"><mxGeometry y="2450" width="50" height="50" as="geometry"/></mxCell><mxCell id="57" value="ToDoApiANYApiPermissionCdkTaStackToDoApi27093C08ANYC1C44B3B" style="outlineConnect=0;fontColor=#B3B3B3;gradientColor=#F54749;gradientDirection=north;fillColor=#C7131F;strokeColor=#ffffff;dashed=0;verticalLabelPosition=bottom;verticalAlign=top;align=center;html=1;fontSize=12;fontStyle=0;aspect=fixed;shape=mxgraph.aws4.resourceIcon;resIcon=mxgraph.aws4.policy;" vertex="1" parent="1"><mxGeometry y="2350" width="50" height="50" as="geometry"/></mxCell><mxCell id="58" value="ToDoApiANYApiPermissionTestCdkTaStackToDoApi27093C08ANYA9A1831C" style="outlineConnect=0;fontColor=#B3B3B3;gradientColor=#F54749;gradientDirection=north;fillColor=#C7131F;strokeColor=#ffffff;dashed=0;verticalLabelPosition=bottom;verticalAlign=top;align=center;html=1;fontSize=12;fontStyle=0;aspect=fixed;shape=mxgraph.aws4.resourceIcon;resIcon=mxgraph.aws4.policy;" vertex="1" parent="1"><mxGeometry y="2550" width="50" height="50" as="geometry"/></mxCell><mxCell id="59" value="ToDoApiANY51A8D247" style="outlineConnect=0;fontColor=#B3B3B3;gradientColor=#945DF2;gradientDirection=north;fillColor=#5A30B5;strokeColor=#ffffff;dashed=0;verticalLabelPosition=bottom;verticalAlign=top;align=center;html=1;fontSize=12;fontStyle=0;aspect=fixed;shape=mxgraph.aws4.resourceIcon;resIcon=mxgraph.aws4.api_gateway;" vertex="1" parent="1"><mxGeometry y="2650" width="50" height="50" as="geometry"/></mxCell><mxCell id="60" value="CDKMetadata" style="outlineConnect=0;fontColor=#B3B3B3;gradientColor=#aaaaaa;gradientDirection=north;fillColor=#aaaaaa;strokeColor=#ffffff;dashed=0;verticalLabelPosition=bottom;verticalAlign=top;align=center;html=1;fontSize=12;fontStyle=0;aspect=fixed;shape=mxgraph.aws4.resourceIcon;resIcon=mxgraph.aws4.cdk;" vertex="1" parent="1"><mxGeometry y="2900" width="50" height="50" as="geometry"/></mxCell><mxCell id="TodoApplicationVPC0CDF7F46|TodoApplicationVPCPublicSubnet1SubnetEB2A3BA5" value="VpcId" style="edgeStyle=orthogonalEdgeStyle;rounded=1;orthogonalLoop=1;jettySize=auto;html=1;labelBackgroundColor=none;fontColor=#EA6B66;noEdgeStyle=1;orthogonal=1;" edge="1" parent="1" source="3" target="2"><mxGeometry relative="1" as="geometry"><Array as="points"><mxPoint x="812" y="650"/><mxPoint x="984" y="909.6153846153845"/></Array></mxGeometry></mxCell><mxCell id="TodoApplicationVPC0CDF7F46|TodoApplicationVPCPublicSubnet1RouteTableE31EB012" value="VpcId" style="edgeStyle=orthogonalEdgeStyle;rounded=1;orthogonalLoop=1;jettySize=auto;html=1;labelBackgroundColor=none;fontColor=#EA6B66;noEdgeStyle=1;orthogonal=1;" edge="1" parent="1" source="4" target="2"><mxGeometry relative="1" as="geometry"><Array as="points"><mxPoint x="312" y="75"/><mxPoint x="400" y="250"/><mxPoint x="650" y="250"/><mxPoint x="650" y="250"/><mxPoint x="900" y="250"/><mxPoint x="988" y="901.9230769230769"/></Array></mxGeometry></mxCell><mxCell id="TodoApplicationVPCPublicSubnet1RouteTableE31EB012|TodoApplicationVPCPublicSubnet1RouteTableAssociationC084684F" value="RouteTableId" style="edgeStyle=orthogonalEdgeStyle;rounded=1;orthogonalLoop=1;jettySize=auto;html=1;labelBackgroundColor=none;fontColor=#EA6B66;noEdgeStyle=1;orthogonal=1;" edge="1" parent="1" source="5" target="4"><mxGeometry relative="1" as="geometry"><Array as="points"><mxPoint x="62" y="47.5"/><mxPoint x="238" y="65"/></Array></mxGeometry></mxCell><mxCell id="TodoApplicationVPCPublicSubnet1SubnetEB2A3BA5|TodoApplicationVPCPublicSubnet1RouteTableAssociationC084684F" value="SubnetId" style="edgeStyle=orthogonalEdgeStyle;rounded=1;orthogonalLoop=1;jettySize=auto;html=1;labelBackgroundColor=none;fontColor=#EA6B66;noEdgeStyle=1;orthogonal=1;" edge="1" parent="1" source="5" target="3"><mxGeometry relative="1" as="geometry"><Array as="points"><mxPoint x="62" y="27.5"/><mxPoint x="150"/><mxPoint x="400"/><mxPoint x="400"/><mxPoint x="650"/><mxPoint x="738" y="636.6666666666666"/></Array></mxGeometry></mxCell><mxCell id="TodoApplicationVPCPublicSubnet1RouteTableE31EB012|TodoApplicationVPCPublicSubnet1DefaultRoute410638FA" value="RouteTableId" style="edgeStyle=orthogonalEdgeStyle;rounded=1;orthogonalLoop=1;jettySize=auto;html=1;labelBackgroundColor=none;fontColor=#EA6B66;noEdgeStyle=1;orthogonal=1;" edge="1" parent="1" source="6" target="4"><mxGeometry relative="1" as="geometry"><Array as="points"><mxPoint x="62" y="127.5"/><mxPoint x="238" y="85"/></Array></mxGeometry></mxCell><mxCell id="TodoApplicationVPCIGW6855E49E|TodoApplicationVPCPublicSubnet1DefaultRoute410638FA" value="GatewayId" style="edgeStyle=orthogonalEdgeStyle;rounded=1;orthogonalLoop=1;jettySize=auto;html=1;labelBackgroundColor=none;fontColor=#EA6B66;noEdgeStyle=1;orthogonal=1;" edge="1" parent="1" source="6" target="23"><mxGeometry relative="1" as="geometry"><Array as="points"><mxPoint x="62" y="147.5"/><mxPoint x="238" y="161.66666666666666"/></Array></mxGeometry></mxCell><mxCell id="TodoApplicationVPCPublicSubnet1SubnetEB2A3BA5|TodoApplicationVPCPublicSubnet1NATGateway27368681" value="SubnetId" style="edgeStyle=orthogonalEdgeStyle;rounded=1;orthogonalLoop=1;jettySize=auto;html=1;labelBackgroundColor=none;fontColor=#EA6B66;noEdgeStyle=1;orthogonal=1;" edge="1" parent="1" source="8" target="3"><mxGeometry relative="1" as="geometry"><Array as="points"><mxPoint x="312" y="365"/><mxPoint x="400" y="350"/><mxPoint x="650" y="350"/><mxPoint x="736" y="650"/></Array></mxGeometry></mxCell><mxCell id="TodoApplicationVPCPublicSubnet1EIP59227756|TodoApplicationVPCPublicSubnet1NATGateway27368681" value="AllocationId" style="edgeStyle=orthogonalEdgeStyle;rounded=1;orthogonalLoop=1;jettySize=auto;html=1;labelBackgroundColor=none;fontColor=#EA6B66;noEdgeStyle=1;orthogonal=1;" edge="1" parent="1" source="8" target="7"><mxGeometry relative="1" as="geometry"><Array as="points"><mxPoint x="312" y="385"/><mxPoint x="488" y="425"/></Array></mxGeometry></mxCell><mxCell id="TodoApplicationVPC0CDF7F46|TodoApplicationVPCPublicSubnet2Subnet7CBD6D0C" value="VpcId" style="edgeStyle=orthogonalEdgeStyle;rounded=1;orthogonalLoop=1;jettySize=auto;html=1;labelBackgroundColor=none;fontColor=#EA6B66;noEdgeStyle=1;orthogonal=1;" edge="1" parent="1" source="9" target="2"><mxGeometry relative="1" as="geometry"><Array as="points"><mxPoint x="812" y="800"/><mxPoint x="980" y="917.3076923076922"/></Array></mxGeometry></mxCell><mxCell id="TodoApplicationVPC0CDF7F46|TodoApplicationVPCPublicSubnet2RouteTable31495C8A" value="VpcId" style="edgeStyle=orthogonalEdgeStyle;rounded=1;orthogonalLoop=1;jettySize=auto;html=1;labelBackgroundColor=none;fontColor=#EA6B66;noEdgeStyle=1;orthogonal=1;" edge="1" parent="1" source="10" target="2"><mxGeometry relative="1" as="geometry"><Array as="points"><mxPoint x="312" y="275"/><mxPoint x="400" y="300"/><mxPoint x="650" y="300"/><mxPoint x="650" y="300"/><mxPoint x="900" y="300"/><mxPoint x="986" y="905.7692307692307"/></Array></mxGeometry></mxCell><mxCell id="TodoApplicationVPCPublicSubnet2RouteTable31495C8A|TodoApplicationVPCPublicSubnet2RouteTableAssociation5FD94531" value="RouteTableId" style="edgeStyle=orthogonalEdgeStyle;rounded=1;orthogonalLoop=1;jettySize=auto;html=1;labelBackgroundColor=none;fontColor=#EA6B66;noEdgeStyle=1;orthogonal=1;" edge="1" parent="1" source="11" target="10"><mxGeometry relative="1" as="geometry"><Array as="points"><mxPoint x="62" y="352.5"/><mxPoint x="238" y="285"/></Array></mxGeometry></mxCell><mxCell id="TodoApplicationVPCPublicSubnet2Subnet7CBD6D0C|TodoApplicationVPCPublicSubnet2RouteTableAssociation5FD94531" value="SubnetId" style="edgeStyle=orthogonalEdgeStyle;rounded=1;orthogonalLoop=1;jettySize=auto;html=1;labelBackgroundColor=none;fontColor=#EA6B66;noEdgeStyle=1;orthogonal=1;" edge="1" parent="1" source="11" target="9"><mxGeometry relative="1" as="geometry"><Array as="points"><mxPoint x="62" y="372.5"/><mxPoint x="150" y="450"/><mxPoint x="400" y="450"/><mxPoint x="400" y="500"/><mxPoint x="650" y="500"/><mxPoint x="738" y="786.6666666666666"/></Array></mxGeometry></mxCell><mxCell id="TodoApplicationVPCPublicSubnet2RouteTable31495C8A|TodoApplicationVPCPublicSubnet2DefaultRouteA7AD6060" value="RouteTableId" style="edgeStyle=orthogonalEdgeStyle;rounded=1;orthogonalLoop=1;jettySize=auto;html=1;labelBackgroundColor=none;fontColor=#EA6B66;noEdgeStyle=1;orthogonal=1;" edge="1" parent="1" source="12" target="10"><mxGeometry relative="1" as="geometry"><Array as="points"><mxPoint x="62" y="247.5"/><mxPoint x="238" y="265"/></Array></mxGeometry></mxCell><mxCell id="TodoApplicationVPCIGW6855E49E|TodoApplicationVPCPublicSubnet2DefaultRouteA7AD6060" value="GatewayId" style="edgeStyle=orthogonalEdgeStyle;rounded=1;orthogonalLoop=1;jettySize=auto;html=1;labelBackgroundColor=none;fontColor=#EA6B66;noEdgeStyle=1;orthogonal=1;" edge="1" parent="1" source="12" target="23"><mxGeometry relative="1" as="geometry"><Array as="points"><mxPoint x="62" y="227.5"/><mxPoint x="236" y="175"/></Array></mxGeometry></mxCell><mxCell id="TodoApplicationVPCPublicSubnet2Subnet7CBD6D0C|TodoApplicationVPCPublicSubnet2NATGatewayE7A4BC92" value="SubnetId" style="edgeStyle=orthogonalEdgeStyle;rounded=1;orthogonalLoop=1;jettySize=auto;html=1;labelBackgroundColor=none;fontColor=#EA6B66;noEdgeStyle=1;orthogonal=1;" edge="1" parent="1" source="14" target="9"><mxGeometry relative="1" as="geometry"><Array as="points"><mxPoint x="312" y="635"/><mxPoint x="400" y="700"/><mxPoint x="650" y="700"/><mxPoint x="736" y="800"/></Array></mxGeometry></mxCell><mxCell id="TodoApplicationVPCPublicSubnet2EIP4AF444A2|TodoApplicationVPCPublicSubnet2NATGatewayE7A4BC92" value="AllocationId" style="edgeStyle=orthogonalEdgeStyle;rounded=1;orthogonalLoop=1;jettySize=auto;html=1;labelBackgroundColor=none;fontColor=#EA6B66;noEdgeStyle=1;orthogonal=1;" edge="1" parent="1" source="14" target="13"><mxGeometry relative="1" as="geometry"><Array as="points"><mxPoint x="312" y="615"/><mxPoint x="488" y="625"/></Array></mxGeometry></mxCell><mxCell id="TodoApplicationVPC0CDF7F46|TodoApplicationVPCPrivateSubnet1Subnet6F951122" value="VpcId" style="edgeStyle=orthogonalEdgeStyle;rounded=1;orthogonalLoop=1;jettySize=auto;html=1;labelBackgroundColor=none;fontColor=#EA6B66;noEdgeStyle=1;orthogonal=1;" edge="1" parent="1" source="15" target="2"><mxGeometry relative="1" as="geometry"><Array as="points"><mxPoint x="312" y="875"/><mxPoint x="400" y="850"/><mxPoint x="650" y="850"/><mxPoint x="650" y="975"/><mxPoint x="900" y="975"/><mxPoint x="978" y="928.8461538461536"/></Array></mxGeometry></mxCell><mxCell id="TodoApplicationVPC0CDF7F46|TodoApplicationVPCPrivateSubnet1RouteTable7929AE88" value="VpcId" style="edgeStyle=orthogonalEdgeStyle;rounded=1;orthogonalLoop=1;jettySize=auto;html=1;labelBackgroundColor=none;fontColor=#EA6B66;noEdgeStyle=1;orthogonal=1;" edge="1" parent="1" source="16" target="2"><mxGeometry relative="1" as="geometry"><Array as="points"><mxPoint x="312" y="525"/><mxPoint x="400" y="550"/><mxPoint x="650" y="550"/><mxPoint x="650" y="725"/><mxPoint x="900" y="725"/><mxPoint x="982" y="913.4615384615383"/></Array></mxGeometry></mxCell><mxCell id="TodoApplicationVPCPrivateSubnet1RouteTable7929AE88|TodoApplicationVPCPrivateSubnet1RouteTableAssociationB13D4BD3" value="RouteTableId" style="edgeStyle=orthogonalEdgeStyle;rounded=1;orthogonalLoop=1;jettySize=auto;html=1;labelBackgroundColor=none;fontColor=#EA6B66;noEdgeStyle=1;orthogonal=1;" edge="1" parent="1" source="17" target="16"><mxGeometry relative="1" as="geometry"><Array as="points"><mxPoint x="62" y="790"/><mxPoint x="238" y="535"/></Array></mxGeometry></mxCell><mxCell id="TodoApplicationVPCPrivateSubnet1Subnet6F951122|TodoApplicationVPCPrivateSubnet1RouteTableAssociationB13D4BD3" value="SubnetId" style="edgeStyle=orthogonalEdgeStyle;rounded=1;orthogonalLoop=1;jettySize=auto;html=1;labelBackgroundColor=none;fontColor=#EA6B66;noEdgeStyle=1;orthogonal=1;" edge="1" parent="1" source="17" target="15"><mxGeometry relative="1" as="geometry"><Array as="points"><mxPoint x="62" y="810"/><mxPoint x="238" y="861.6666666666666"/></Array></mxGeometry></mxCell><mxCell id="TodoApplicationVPCPrivateSubnet1RouteTable7929AE88|TodoApplicationVPCPrivateSubnet1DefaultRoute6E694A98" value="RouteTableId" style="edgeStyle=orthogonalEdgeStyle;rounded=1;orthogonalLoop=1;jettySize=auto;html=1;labelBackgroundColor=none;fontColor=#EA6B66;noEdgeStyle=1;orthogonal=1;" edge="1" parent="1" source="18" target="16"><mxGeometry relative="1" as="geometry"><Array as="points"><mxPoint x="62" y="472.5"/><mxPoint x="238" y="515"/></Array></mxGeometry></mxCell><mxCell id="TodoApplicationVPCPublicSubnet1NATGateway27368681|TodoApplicationVPCPrivateSubnet1DefaultRoute6E694A98" value="NatGatewayId" style="edgeStyle=orthogonalEdgeStyle;rounded=1;orthogonalLoop=1;jettySize=auto;html=1;labelBackgroundColor=none;fontColor=#EA6B66;noEdgeStyle=1;orthogonal=1;" edge="1" parent="1" source="18" target="8"><mxGeometry relative="1" as="geometry"><Array as="points"><mxPoint x="62" y="452.5"/><mxPoint x="238" y="375"/></Array></mxGeometry></mxCell><mxCell id="TodoApplicationVPC0CDF7F46|TodoApplicationVPCPrivateSubnet2Subnet09B93FA4" value="VpcId" style="edgeStyle=orthogonalEdgeStyle;rounded=1;orthogonalLoop=1;jettySize=auto;html=1;labelBackgroundColor=none;fontColor=#EA6B66;noEdgeStyle=1;orthogonal=1;" edge="1" parent="1" source="19" target="2"><mxGeometry relative="1" as="geometry"><Array as="points"><mxPoint x="312" y="975"/><mxPoint x="400" y="900"/><mxPoint x="650" y="900"/><mxPoint x="650" y="1025"/><mxPoint x="900" y="1025"/><mxPoint x="980" y="932.6923076923074"/></Array></mxGeometry></mxCell><mxCell id="TodoApplicationVPC0CDF7F46|TodoApplicationVPCPrivateSubnet2RouteTable0C4E191D" value="VpcId" style="edgeStyle=orthogonalEdgeStyle;rounded=1;orthogonalLoop=1;jettySize=auto;html=1;labelBackgroundColor=none;fontColor=#EA6B66;noEdgeStyle=1;orthogonal=1;" edge="1" parent="1" source="20" target="2"><mxGeometry relative="1" as="geometry"><Array as="points"><mxPoint x="312" y="775"/><mxPoint x="400" y="800"/><mxPoint x="650" y="800"/><mxPoint x="650" y="925"/><mxPoint x="900" y="925"/><mxPoint x="976" y="924.9999999999998"/></Array></mxGeometry></mxCell><mxCell id="TodoApplicationVPCPrivateSubnet2RouteTable0C4E191D|TodoApplicationVPCPrivateSubnet2RouteTableAssociation8CA4BAC8" value="RouteTableId" style="edgeStyle=orthogonalEdgeStyle;rounded=1;orthogonalLoop=1;jettySize=auto;html=1;labelBackgroundColor=none;fontColor=#EA6B66;noEdgeStyle=1;orthogonal=1;" edge="1" parent="1" source="21" target="20"><mxGeometry relative="1" as="geometry"><Array as="points"><mxPoint x="62" y="890"/><mxPoint x="238" y="785"/></Array></mxGeometry></mxCell><mxCell id="TodoApplicationVPCPrivateSubnet2Subnet09B93FA4|TodoApplicationVPCPrivateSubnet2RouteTableAssociation8CA4BAC8" value="SubnetId" style="edgeStyle=orthogonalEdgeStyle;rounded=1;orthogonalLoop=1;jettySize=auto;html=1;labelBackgroundColor=none;fontColor=#EA6B66;noEdgeStyle=1;orthogonal=1;" edge="1" parent="1" source="21" target="19"><mxGeometry relative="1" as="geometry"><Array as="points"><mxPoint x="62" y="910"/><mxPoint x="238" y="961.6666666666666"/></Array></mxGeometry></mxCell><mxCell id="TodoApplicationVPCPrivateSubnet2RouteTable0C4E191D|TodoApplicationVPCPrivateSubnet2DefaultRoute0E06BA0A" value="RouteTableId" style="edgeStyle=orthogonalEdgeStyle;rounded=1;orthogonalLoop=1;jettySize=auto;html=1;labelBackgroundColor=none;fontColor=#EA6B66;noEdgeStyle=1;orthogonal=1;" edge="1" parent="1" source="22" target="20"><mxGeometry relative="1" as="geometry"><Array as="points"><mxPoint x="62" y="710"/><mxPoint x="238" y="765"/></Array></mxGeometry></mxCell><mxCell id="TodoApplicationVPCPublicSubnet2NATGatewayE7A4BC92|TodoApplicationVPCPrivateSubnet2DefaultRoute0E06BA0A" value="NatGatewayId" style="edgeStyle=orthogonalEdgeStyle;rounded=1;orthogonalLoop=1;jettySize=auto;html=1;labelBackgroundColor=none;fontColor=#EA6B66;noEdgeStyle=1;orthogonal=1;" edge="1" parent="1" source="22" target="14"><mxGeometry relative="1" as="geometry"><Array as="points"><mxPoint x="62" y="690"/><mxPoint x="238" y="625"/></Array></mxGeometry></mxCell><mxCell id="TodoApplicationVPC0CDF7F46|TodoApplicationVPCVPCGW31DE62DB" value="VpcId" style="edgeStyle=orthogonalEdgeStyle;rounded=1;orthogonalLoop=1;jettySize=auto;html=1;labelBackgroundColor=none;fontColor=#EA6B66;noEdgeStyle=1;orthogonal=1;" edge="1" parent="1" source="24" target="2"><mxGeometry relative="1" as="geometry"><Array as="points"><mxPoint x="62" y="572.5"/><mxPoint x="150" y="700"/><mxPoint x="400" y="700"/><mxPoint x="400" y="750"/><mxPoint x="650" y="750"/><mxPoint x="650" y="875"/><mxPoint x="900" y="875"/><mxPoint x="978" y="921.153846153846"/></Array></mxGeometry></mxCell><mxCell id="TodoApplicationVPCIGW6855E49E|TodoApplicationVPCVPCGW31DE62DB" value="InternetGatewayId" style="edgeStyle=orthogonalEdgeStyle;rounded=1;orthogonalLoop=1;jettySize=auto;html=1;labelBackgroundColor=none;fontColor=#EA6B66;noEdgeStyle=1;orthogonal=1;" edge="1" parent="1" source="24" target="23"><mxGeometry relative="1" as="geometry"><Array as="points"><mxPoint x="62" y="552.5"/><mxPoint x="238" y="188.33333333333334"/></Array></mxGeometry></mxCell><mxCell id="TodoApplicationVPC0CDF7F46|DnsTodoApiUserNamespace463EF893" value="Vpc" style="edgeStyle=orthogonalEdgeStyle;rounded=1;orthogonalLoop=1;jettySize=auto;html=1;labelBackgroundColor=none;fontColor=#EA6B66;noEdgeStyle=1;orthogonal=1;" edge="1" parent="1" source="27" target="2"><mxGeometry relative="1" as="geometry"><Array as="points"><mxPoint x="562" y="1275"/><mxPoint x="650" y="1075"/><mxPoint x="900" y="1075"/><mxPoint x="982" y="936.5384615384612"/></Array></mxGeometry></mxCell><mxCell id="apiUserLogGroup59208C7F|apiUserTaskDefD02E79BF" value="awslogs-group" style="edgeStyle=orthogonalEdgeStyle;rounded=1;orthogonalLoop=1;jettySize=auto;html=1;labelBackgroundColor=none;fontColor=#EA6B66;noEdgeStyle=1;orthogonal=1;" edge="1" parent="1" source="29" target="32"><mxGeometry relative="1" as="geometry"><Array as="points"><mxPoint x="312" y="1261.6666666666667"/><mxPoint x="488" y="985"/></Array></mxGeometry></mxCell><mxCell id="apiUserTaskDefExecutionRole08AA7C2E|apiUserTaskDefD02E79BF" value="ExecutionRoleArn" style="edgeStyle=orthogonalEdgeStyle;rounded=1;orthogonalLoop=1;jettySize=auto;html=1;labelBackgroundColor=none;fontColor=#EA6B66;noEdgeStyle=1;orthogonal=1;" edge="1" parent="1" source="29" target="30"><mxGeometry relative="1" as="geometry"><Array as="points"><mxPoint x="314" y="1275"/><mxPoint x="488" y="1085"/></Array></mxGeometry></mxCell><mxCell id="ecsTaskExecutionRole34F54B99|apiUserTaskDefD02E79BF" value="TaskRoleArn" style="edgeStyle=orthogonalEdgeStyle;rounded=1;orthogonalLoop=1;jettySize=auto;html=1;labelBackgroundColor=none;fontColor=#EA6B66;noEdgeStyle=1;orthogonal=1;" edge="1" parent="1" source="29" target="28"><mxGeometry relative="1" as="geometry"><Array as="points"><mxPoint x="312" y="1288.3333333333333"/><mxPoint x="488" y="1175"/></Array></mxGeometry></mxCell><mxCell id="apiUserTaskDefExecutionRole08AA7C2E|apiUserTaskDefExecutionRoleDefaultPolicyF5A7F1AE" value="Roles" style="edgeStyle=orthogonalEdgeStyle;rounded=1;orthogonalLoop=1;jettySize=auto;html=1;labelBackgroundColor=none;fontColor=#EA6B66;noEdgeStyle=1;orthogonal=1;" edge="1" parent="1" source="31" target="30"><mxGeometry relative="1" as="geometry"><Array as="points"><mxPoint x="312" y="1185"/><mxPoint x="488" y="1065"/></Array></mxGeometry></mxCell><mxCell id="apiUserLogGroup59208C7F|apiUserTaskDefExecutionRoleDefaultPolicyF5A7F1AE" value="Resource" style="edgeStyle=orthogonalEdgeStyle;rounded=1;orthogonalLoop=1;jettySize=auto;html=1;labelBackgroundColor=none;fontColor=#EA6B66;noEdgeStyle=1;orthogonal=1;" edge="1" parent="1" source="31" target="32"><mxGeometry relative="1" as="geometry"><Array as="points"><mxPoint x="312" y="1165"/><mxPoint x="488" y="965"/></Array></mxGeometry></mxCell><mxCell id="TodoApplicationVPC0CDF7F46|apiUserSecurityGroup7FE4102E" value="VpcId" style="edgeStyle=orthogonalEdgeStyle;rounded=1;orthogonalLoop=1;jettySize=auto;html=1;labelBackgroundColor=none;fontColor=#EA6B66;noEdgeStyle=1;orthogonal=1;" edge="1" parent="1" source="33" target="2"><mxGeometry relative="1" as="geometry"><Array as="points"><mxPoint x="312" y="1475"/><mxPoint x="400" y="1350"/><mxPoint x="650" y="1350"/><mxPoint x="650" y="1125"/><mxPoint x="900" y="1125"/><mxPoint x="984" y="940.384615384615"/></Array></mxGeometry></mxCell><mxCell id="apiUserSecurityGroup7FE4102E|apiUserSecurityGroupfromCdkTaStackhttpapiUserInternalALBSecurityGroup9665D31A8027E4BA55" value="GroupId" style="edgeStyle=orthogonalEdgeStyle;rounded=1;orthogonalLoop=1;jettySize=auto;html=1;labelBackgroundColor=none;fontColor=#EA6B66;noEdgeStyle=1;orthogonal=1;" edge="1" parent="1" source="34" target="33"><mxGeometry relative="1" as="geometry"><Array as="points"><mxPoint x="62" y="1340"/><mxPoint x="236" y="1475"/></Array></mxGeometry></mxCell><mxCell id="httpapiUserInternalALBSecurityGroup78E5B605|apiUserSecurityGroupfromCdkTaStackhttpapiUserInternalALBSecurityGroup9665D31A8027E4BA55" value="SourceSecurityGroupId" style="edgeStyle=orthogonalEdgeStyle;rounded=1;orthogonalLoop=1;jettySize=auto;html=1;labelBackgroundColor=none;fontColor=#EA6B66;noEdgeStyle=1;orthogonal=1;" edge="1" parent="1" source="34" target="38"><mxGeometry relative="1" as="geometry"><Array as="points"><mxPoint x="62" y="1360"/><mxPoint x="150" y="1550"/><mxPoint x="400" y="1550"/><mxPoint x="400" y="1400"/><mxPoint x="650" y="1400"/><mxPoint x="738" y="1361.6666666666667"/></Array></mxGeometry></mxCell><mxCell id="TodoCluster37AC706D|apiUserService90255981" value="Cluster" style="edgeStyle=orthogonalEdgeStyle;rounded=1;orthogonalLoop=1;jettySize=auto;html=1;labelBackgroundColor=none;fontColor=#EA6B66;noEdgeStyle=1;orthogonal=1;" edge="1" parent="1" source="35" target="26"><mxGeometry relative="1" as="geometry"><Array as="points"><mxPoint x="66" y="1242.857142857143"/><mxPoint x="238" y="1075"/></Array></mxGeometry></mxCell><mxCell id="httpapiUserInternalALBhttpapiListenerapiUserTargetGroupGroup4E80C0FF|apiUserService90255981" value="TargetGroupArn" style="edgeStyle=orthogonalEdgeStyle;rounded=1;orthogonalLoop=1;jettySize=auto;html=1;labelBackgroundColor=none;fontColor=#EA6B66;noEdgeStyle=1;orthogonal=1;" edge="1" parent="1" source="35" target="41"><mxGeometry relative="1" as="geometry"><Array as="points"><mxPoint x="62" y="1271.4285714285713"/><mxPoint x="238" y="1615"/></Array></mxGeometry></mxCell><mxCell id="TodoApplicationVPCPrivateSubnet1Subnet6F951122|apiUserService90255981" value="Subnets" style="edgeStyle=orthogonalEdgeStyle;rounded=1;orthogonalLoop=1;jettySize=auto;html=1;labelBackgroundColor=none;fontColor=#EA6B66;noEdgeStyle=1;orthogonal=1;" edge="1" parent="1" source="35" target="15"><mxGeometry relative="1" as="geometry"><Array as="points"><mxPoint x="62" y="1228.5714285714287"/><mxPoint x="238" y="888.3333333333334"/></Array></mxGeometry></mxCell><mxCell id="TodoApplicationVPCPrivateSubnet2Subnet09B93FA4|apiUserService90255981" value="Subnets" style="edgeStyle=orthogonalEdgeStyle;rounded=1;orthogonalLoop=1;jettySize=auto;html=1;labelBackgroundColor=none;fontColor=#EA6B66;noEdgeStyle=1;orthogonal=1;" edge="1" parent="1" source="35" target="19"><mxGeometry relative="1" as="geometry"><Array as="points"><mxPoint x="64" y="1235.7142857142858"/><mxPoint x="238" y="988.3333333333334"/></Array></mxGeometry></mxCell><mxCell id="apiUserTaskDefD02E79BF|apiUserService90255981" value="TaskDefinition" style="edgeStyle=orthogonalEdgeStyle;rounded=1;orthogonalLoop=1;jettySize=auto;html=1;labelBackgroundColor=none;fontColor=#EA6B66;noEdgeStyle=1;orthogonal=1;" edge="1" parent="1" source="35" target="29"><mxGeometry relative="1" as="geometry"><Array as="points"><mxPoint x="68" y="1250"/><mxPoint x="238" y="1275"/></Array></mxGeometry></mxCell><mxCell id="apiUserSecurityGroup7FE4102E|apiUserService90255981" value="SecurityGroups" style="edgeStyle=orthogonalEdgeStyle;rounded=1;orthogonalLoop=1;jettySize=auto;html=1;labelBackgroundColor=none;fontColor=#EA6B66;noEdgeStyle=1;orthogonal=1;" edge="1" parent="1" source="35" target="33"><mxGeometry relative="1" as="geometry"><Array as="points"><mxPoint x="64" y="1264.2857142857142"/><mxPoint x="238" y="1461.6666666666667"/></Array></mxGeometry></mxCell><mxCell id="apiUserServiceCloudmapService5660F332|apiUserService90255981" value="RegistryArn" style="edgeStyle=orthogonalEdgeStyle;rounded=1;orthogonalLoop=1;jettySize=auto;html=1;labelBackgroundColor=none;fontColor=#EA6B66;noEdgeStyle=1;orthogonal=1;" edge="1" parent="1" source="35" target="36"><mxGeometry relative="1" as="geometry"><Array as="points"><mxPoint x="66" y="1257.142857142857"/><mxPoint x="238" y="1375"/></Array></mxGeometry></mxCell><mxCell id="DnsTodoApiUserNamespace463EF893|apiUserServiceCloudmapService5660F332" value="NamespaceId" style="edgeStyle=orthogonalEdgeStyle;rounded=1;orthogonalLoop=1;jettySize=auto;html=1;labelBackgroundColor=none;fontColor=#EA6B66;noEdgeStyle=1;orthogonal=1;" edge="1" parent="1" source="36" target="27"><mxGeometry relative="1" as="geometry"><Array as="points"><mxPoint x="312" y="1375"/><mxPoint x="488" y="1275"/></Array></mxGeometry></mxCell><mxCell id="TodoApplicationVPCPublicSubnet1SubnetEB2A3BA5|httpapiUserInternalALB11D35DC1" value="Subnets" style="edgeStyle=orthogonalEdgeStyle;rounded=1;orthogonalLoop=1;jettySize=auto;html=1;labelBackgroundColor=none;fontColor=#EA6B66;noEdgeStyle=1;orthogonal=1;" edge="1" parent="1" source="37" target="3"><mxGeometry relative="1" as="geometry"><Array as="points"><mxPoint x="562" y="1511.6666666666667"/><mxPoint x="738" y="663.3333333333334"/></Array></mxGeometry></mxCell><mxCell id="TodoApplicationVPCPublicSubnet2Subnet7CBD6D0C|httpapiUserInternalALB11D35DC1" value="Subnets" style="edgeStyle=orthogonalEdgeStyle;rounded=1;orthogonalLoop=1;jettySize=auto;html=1;labelBackgroundColor=none;fontColor=#EA6B66;noEdgeStyle=1;orthogonal=1;" edge="1" parent="1" source="37" target="9"><mxGeometry relative="1" as="geometry"><Array as="points"><mxPoint x="564" y="1525"/><mxPoint x="738" y="813.3333333333334"/></Array></mxGeometry></mxCell><mxCell id="httpapiUserInternalALBSecurityGroup78E5B605|httpapiUserInternalALB11D35DC1" value="SecurityGroups" style="edgeStyle=orthogonalEdgeStyle;rounded=1;orthogonalLoop=1;jettySize=auto;html=1;labelBackgroundColor=none;fontColor=#EA6B66;noEdgeStyle=1;orthogonal=1;" edge="1" parent="1" source="37" target="38"><mxGeometry relative="1" as="geometry"><Array as="points"><mxPoint x="562" y="1538.3333333333333"/><mxPoint x="736" y="1375"/></Array></mxGeometry></mxCell><mxCell id="TodoApplicationVPC0CDF7F46|httpapiUserInternalALBSecurityGroup78E5B605" value="VpcId" style="edgeStyle=orthogonalEdgeStyle;rounded=1;orthogonalLoop=1;jettySize=auto;html=1;labelBackgroundColor=none;fontColor=#EA6B66;noEdgeStyle=1;orthogonal=1;" edge="1" parent="1" source="38" target="2"><mxGeometry relative="1" as="geometry"><Array as="points"><mxPoint x="812" y="1375"/><mxPoint x="988" y="948.0769230769226"/></Array></mxGeometry></mxCell><mxCell id="httpapiUserInternalALBSecurityGroup78E5B605|httpapiUserInternalALBSecurityGrouptoCdkTaStackapiUserSecurityGroup5C8B8818806A706628" value="GroupId" style="edgeStyle=orthogonalEdgeStyle;rounded=1;orthogonalLoop=1;jettySize=auto;html=1;labelBackgroundColor=none;fontColor=#EA6B66;noEdgeStyle=1;orthogonal=1;" edge="1" parent="1" source="39" target="38"><mxGeometry relative="1" as="geometry"><Array as="points"><mxPoint x="62" y="1647.5"/><mxPoint x="150" y="1800"/><mxPoint x="400" y="1800"/><mxPoint x="400" y="1800"/><mxPoint x="650" y="1800"/><mxPoint x="738" y="1388.3333333333333"/></Array></mxGeometry></mxCell><mxCell id="apiUserSecurityGroup7FE4102E|httpapiUserInternalALBSecurityGrouptoCdkTaStackapiUserSecurityGroup5C8B8818806A706628" value="DestinationSecurityGroupId" style="edgeStyle=orthogonalEdgeStyle;rounded=1;orthogonalLoop=1;jettySize=auto;html=1;labelBackgroundColor=none;fontColor=#EA6B66;noEdgeStyle=1;orthogonal=1;" edge="1" parent="1" source="39" target="33"><mxGeometry relative="1" as="geometry"><Array as="points"><mxPoint x="62" y="1627.5"/><mxPoint x="238" y="1488.3333333333333"/></Array></mxGeometry></mxCell><mxCell id="httpapiUserInternalALB11D35DC1|httpapiUserInternalALBhttpapiListener3EE77363" value="LoadBalancerArn" style="edgeStyle=orthogonalEdgeStyle;rounded=1;orthogonalLoop=1;jettySize=auto;html=1;labelBackgroundColor=none;fontColor=#EA6B66;noEdgeStyle=1;orthogonal=1;" edge="1" parent="1" source="40" target="37"><mxGeometry relative="1" as="geometry"><Array as="points"><mxPoint x="312" y="1725"/><mxPoint x="488" y="1525"/></Array></mxGeometry></mxCell><mxCell id="TodoApplicationVPC0CDF7F46|httpapiUserInternalALBhttpapiListenerapiUserTargetGroupGroup4E80C0FF" value="VpcId" style="edgeStyle=orthogonalEdgeStyle;rounded=1;orthogonalLoop=1;jettySize=auto;html=1;labelBackgroundColor=none;fontColor=#EA6B66;noEdgeStyle=1;orthogonal=1;" edge="1" parent="1" source="41" target="2"><mxGeometry relative="1" as="geometry"><Array as="points"><mxPoint x="312" y="1625"/><mxPoint x="400" y="1450"/><mxPoint x="650" y="1450"/><mxPoint x="650" y="1175"/><mxPoint x="900" y="1175"/><mxPoint x="986" y="944.2307692307688"/></Array></mxGeometry></mxCell><mxCell id="httpapiUserInternalALBhttpapiListenerapiUserTargetGroupGroup4E80C0FF|httpapiUserInternalALBhttpapiListenerapiUserTargetGroupRuleE8AEE55A" value="TargetGroupArn" style="edgeStyle=orthogonalEdgeStyle;rounded=1;orthogonalLoop=1;jettySize=auto;html=1;labelBackgroundColor=none;fontColor=#EA6B66;noEdgeStyle=1;orthogonal=1;" edge="1" parent="1" source="42" target="41"><mxGeometry relative="1" as="geometry"><Array as="points"><mxPoint x="62" y="1440"/><mxPoint x="238" y="1635"/></Array></mxGeometry></mxCell><mxCell id="httpapiUserInternalALBhttpapiListener3EE77363|httpapiUserInternalALBhttpapiListenerapiUserTargetGroupRuleE8AEE55A" value="ListenerArn" style="edgeStyle=orthogonalEdgeStyle;rounded=1;orthogonalLoop=1;jettySize=auto;html=1;labelBackgroundColor=none;fontColor=#EA6B66;noEdgeStyle=1;orthogonal=1;" edge="1" parent="1" source="42" target="40"><mxGeometry relative="1" as="geometry"><Array as="points"><mxPoint x="62" y="1460"/><mxPoint x="238" y="1725"/></Array></mxGeometry></mxCell><mxCell id="TodoApplicationVPCPrivateSubnet1Subnet6F951122|HttpVpcLink" value="SubnetIds" style="edgeStyle=orthogonalEdgeStyle;rounded=1;orthogonalLoop=1;jettySize=auto;html=1;labelBackgroundColor=none;fontColor=#EA6B66;noEdgeStyle=1;orthogonal=1;" edge="1" parent="1" source="43" target="15"><mxGeometry relative="1" as="geometry"><Array as="points"><mxPoint x="62" y="990"/><mxPoint x="236" y="875"/></Array></mxGeometry></mxCell><mxCell id="TodoApplicationVPCPrivateSubnet2Subnet09B93FA4|HttpVpcLink" value="SubnetIds" style="edgeStyle=orthogonalEdgeStyle;rounded=1;orthogonalLoop=1;jettySize=auto;html=1;labelBackgroundColor=none;fontColor=#EA6B66;noEdgeStyle=1;orthogonal=1;" edge="1" parent="1" source="43" target="19"><mxGeometry relative="1" as="geometry"><Array as="points"><mxPoint x="62" y="1010"/><mxPoint x="236" y="975"/></Array></mxGeometry></mxCell><mxCell id="ApiLambdaServiceRole1CC7D0F3|ApiLambdaServiceRoleDefaultPolicyF1B57697" value="Roles" style="edgeStyle=orthogonalEdgeStyle;rounded=1;orthogonalLoop=1;jettySize=auto;html=1;labelBackgroundColor=none;fontColor=#EA6B66;noEdgeStyle=1;orthogonal=1;" edge="1" parent="1" source="46" target="45"><mxGeometry relative="1" as="geometry"><Array as="points"><mxPoint x="312" y="2338.3333333333335"/><mxPoint x="488" y="2515"/></Array></mxGeometry></mxCell><mxCell id="ToDoBucketStack23850757|ApiLambdaServiceRoleDefaultPolicyF1B57697" value="Resource" style="edgeStyle=orthogonalEdgeStyle;rounded=1;orthogonalLoop=1;jettySize=auto;html=1;labelBackgroundColor=none;fontColor=#EA6B66;noEdgeStyle=1;orthogonal=1;" edge="1" parent="1" source="46" target="25"><mxGeometry relative="1" as="geometry"><Array as="points"><mxPoint x="312" y="2311.6666666666665"/><mxPoint x="488" y="2315"/></Array></mxGeometry></mxCell><mxCell id="TodoTable585F1D6B|ApiLambdaServiceRoleDefaultPolicyF1B57697" value="Resource" style="edgeStyle=orthogonalEdgeStyle;rounded=1;orthogonalLoop=1;jettySize=auto;html=1;labelBackgroundColor=none;fontColor=#EA6B66;noEdgeStyle=1;orthogonal=1;" edge="1" parent="1" source="46" target="44"><mxGeometry relative="1" as="geometry"><Array as="points"><mxPoint x="314" y="2325"/><mxPoint x="488" y="2415"/></Array></mxGeometry></mxCell><mxCell id="ToDoBucketStack23850757|ApiLambda91D2282D" value="Variable" style="edgeStyle=orthogonalEdgeStyle;rounded=1;orthogonalLoop=1;jettySize=auto;html=1;labelBackgroundColor=none;fontColor=#EA6B66;noEdgeStyle=1;orthogonal=1;" edge="1" parent="1" source="47" target="25"><mxGeometry relative="1" as="geometry"><Array as="points"><mxPoint x="312" y="2411.6666666666665"/><mxPoint x="488" y="2335"/></Array></mxGeometry></mxCell><mxCell id="TodoTable585F1D6B|ApiLambda91D2282D" value="Variable" style="edgeStyle=orthogonalEdgeStyle;rounded=1;orthogonalLoop=1;jettySize=auto;html=1;labelBackgroundColor=none;fontColor=#EA6B66;noEdgeStyle=1;orthogonal=1;" edge="1" parent="1" source="47" target="44"><mxGeometry relative="1" as="geometry"><Array as="points"><mxPoint x="314" y="2425"/><mxPoint x="488" y="2435"/></Array></mxGeometry></mxCell><mxCell id="ApiLambdaServiceRole1CC7D0F3|ApiLambda91D2282D" value="Role" style="edgeStyle=orthogonalEdgeStyle;rounded=1;orthogonalLoop=1;jettySize=auto;html=1;labelBackgroundColor=none;fontColor=#EA6B66;noEdgeStyle=1;orthogonal=1;" edge="1" parent="1" source="47" target="45"><mxGeometry relative="1" as="geometry"><Array as="points"><mxPoint x="312" y="2438.3333333333335"/><mxPoint x="488" y="2535"/></Array></mxGeometry></mxCell><mxCell id="ToDoApiCloudWatchRole5C83FD39|ToDoApiAccount0BCCB737" value="CloudWatchRoleArn" style="edgeStyle=orthogonalEdgeStyle;rounded=1;orthogonalLoop=1;jettySize=auto;html=1;labelBackgroundColor=none;fontColor=#EA6B66;noEdgeStyle=1;orthogonal=1;" edge="1" parent="1" source="50" target="49"><mxGeometry relative="1" as="geometry"><Array as="points"><mxPoint x="62" y="1925"/><mxPoint x="238" y="1925"/></Array></mxGeometry></mxCell><mxCell id="ToDoApiCB50405F|ToDoApiDeployment903D5882d9f6d92958b8dc68d0e64226e9f1bf02" value="RestApiId" style="edgeStyle=orthogonalEdgeStyle;rounded=1;orthogonalLoop=1;jettySize=auto;html=1;labelBackgroundColor=none;fontColor=#EA6B66;noEdgeStyle=1;orthogonal=1;" edge="1" parent="1" source="51" target="48"><mxGeometry relative="1" as="geometry"><Array as="points"><mxPoint x="562" y="2175"/><mxPoint x="734" y="2588.888888888889"/></Array></mxGeometry></mxCell><mxCell id="ToDoApiCB50405F|ToDoApiDeploymentStageprod6F950C85" value="RestApiId" style="edgeStyle=orthogonalEdgeStyle;rounded=1;orthogonalLoop=1;jettySize=auto;html=1;labelBackgroundColor=none;fontColor=#EA6B66;noEdgeStyle=1;orthogonal=1;" edge="1" parent="1" source="52" target="48"><mxGeometry relative="1" as="geometry"><Array as="points"><mxPoint x="312" y="2235"/><mxPoint x="400" y="2250"/><mxPoint x="650" y="2250"/><mxPoint x="732" y="2594.444444444445"/></Array></mxGeometry></mxCell><mxCell id="ToDoApiDeployment903D5882d9f6d92958b8dc68d0e64226e9f1bf02|ToDoApiDeploymentStageprod6F950C85" value="DeploymentId" style="edgeStyle=orthogonalEdgeStyle;rounded=1;orthogonalLoop=1;jettySize=auto;html=1;labelBackgroundColor=none;fontColor=#EA6B66;noEdgeStyle=1;orthogonal=1;" edge="1" parent="1" source="52" target="51"><mxGeometry relative="1" as="geometry"><Array as="points"><mxPoint x="312" y="2215"/><mxPoint x="488" y="2175"/></Array></mxGeometry></mxCell><mxCell id="ToDoApiCB50405F|ToDoApiproxy98DAB61A" value="RestApiId&#xA;ParentId" style="edgeStyle=orthogonalEdgeStyle;rounded=1;orthogonalLoop=1;jettySize=auto;html=1;labelBackgroundColor=none;fontColor=#EA6B66;noEdgeStyle=1;orthogonal=1;" edge="1" parent="1" source="53" target="48"><mxGeometry relative="1" as="geometry"><Array as="points"><mxPoint x="312" y="2575"/><mxPoint x="400" y="2650"/><mxPoint x="650" y="2650"/><mxPoint x="732" y="2605.555555555556"/></Array></mxGeometry></mxCell><mxCell id="ToDoApiCB50405F|ToDoApiproxyANYApiPermissionCdkTaStackToDoApi27093C08ANYproxy3318D2D3" value="SourceArn" style="edgeStyle=orthogonalEdgeStyle;rounded=1;orthogonalLoop=1;jettySize=auto;html=1;labelBackgroundColor=none;fontColor=#EA6B66;noEdgeStyle=1;orthogonal=1;" edge="1" parent="1" source="54" target="48"><mxGeometry relative="1" as="geometry"><Array as="points"><mxPoint x="62" y="2261.6666666666665"/><mxPoint x="150" y="2100"/><mxPoint x="400" y="2100"/><mxPoint x="400" y="2100"/><mxPoint x="650" y="2100"/><mxPoint x="736" y="2583.3333333333335"/></Array></mxGeometry></mxCell><mxCell id="ToDoApiDeploymentStageprod6F950C85|ToDoApiproxyANYApiPermissionCdkTaStackToDoApi27093C08ANYproxy3318D2D3" value="SourceArn" style="edgeStyle=orthogonalEdgeStyle;rounded=1;orthogonalLoop=1;jettySize=auto;html=1;labelBackgroundColor=none;fontColor=#EA6B66;noEdgeStyle=1;orthogonal=1;" edge="1" parent="1" source="54" target="52"><mxGeometry relative="1" as="geometry"><Array as="points"><mxPoint x="64" y="2275"/><mxPoint x="238" y="2215"/></Array></mxGeometry></mxCell><mxCell id="ApiLambda91D2282D|ToDoApiproxyANYApiPermissionCdkTaStackToDoApi27093C08ANYproxy3318D2D3" value="FunctionName" style="edgeStyle=orthogonalEdgeStyle;rounded=1;orthogonalLoop=1;jettySize=auto;html=1;labelBackgroundColor=none;fontColor=#EA6B66;noEdgeStyle=1;orthogonal=1;" edge="1" parent="1" source="54" target="47"><mxGeometry relative="1" as="geometry"><Array as="points"><mxPoint x="62" y="2288.3333333333335"/><mxPoint x="236" y="2415"/></Array></mxGeometry></mxCell><mxCell id="ToDoApiCB50405F|ToDoApiproxyANYApiPermissionTestCdkTaStackToDoApi27093C08ANYproxyC87E1EF2" value="SourceArn" style="edgeStyle=orthogonalEdgeStyle;rounded=1;orthogonalLoop=1;jettySize=auto;html=1;labelBackgroundColor=none;fontColor=#EA6B66;noEdgeStyle=1;orthogonal=1;" edge="1" parent="1" source="55" target="48"><mxGeometry relative="1" as="geometry"><Array as="points"><mxPoint x="62" y="2165"/><mxPoint x="150" y="2050"/><mxPoint x="400" y="2050"/><mxPoint x="400" y="2050"/><mxPoint x="650" y="2050"/><mxPoint x="738" y="2577.777777777778"/></Array></mxGeometry></mxCell><mxCell id="ApiLambda91D2282D|ToDoApiproxyANYApiPermissionTestCdkTaStackToDoApi27093C08ANYproxyC87E1EF2" value="FunctionName" style="edgeStyle=orthogonalEdgeStyle;rounded=1;orthogonalLoop=1;jettySize=auto;html=1;labelBackgroundColor=none;fontColor=#EA6B66;noEdgeStyle=1;orthogonal=1;" edge="1" parent="1" source="55" target="47"><mxGeometry relative="1" as="geometry"><Array as="points"><mxPoint x="62" y="2185"/><mxPoint x="238" y="2408.3333333333335"/></Array></mxGeometry></mxCell><mxCell id="ToDoApiproxy98DAB61A|ToDoApiproxyANYE62D66E9" value="ResourceId" style="edgeStyle=orthogonalEdgeStyle;rounded=1;orthogonalLoop=1;jettySize=auto;html=1;labelBackgroundColor=none;fontColor=#EA6B66;noEdgeStyle=1;orthogonal=1;" edge="1" parent="1" source="56" target="53"><mxGeometry relative="1" as="geometry"><Array as="points"><mxPoint x="64" y="2475"/><mxPoint x="238" y="2575"/></Array></mxGeometry></mxCell><mxCell id="ToDoApiCB50405F|ToDoApiproxyANYE62D66E9" value="RestApiId" style="edgeStyle=orthogonalEdgeStyle;rounded=1;orthogonalLoop=1;jettySize=auto;html=1;labelBackgroundColor=none;fontColor=#EA6B66;noEdgeStyle=1;orthogonal=1;" edge="1" parent="1" source="56" target="48"><mxGeometry relative="1" as="geometry"><Array as="points"><mxPoint x="62" y="2488.3333333333335"/><mxPoint x="150" y="2700"/><mxPoint x="400" y="2700"/><mxPoint x="400" y="2700"/><mxPoint x="650" y="2700"/><mxPoint x="734" y="2611.1111111111118"/></Array></mxGeometry></mxCell><mxCell id="ApiLambda91D2282D|ToDoApiproxyANYE62D66E9" value="Uri" style="edgeStyle=orthogonalEdgeStyle;rounded=1;orthogonalLoop=1;jettySize=auto;html=1;labelBackgroundColor=none;fontColor=#EA6B66;noEdgeStyle=1;orthogonal=1;" edge="1" parent="1" source="56" target="47"><mxGeometry relative="1" as="geometry"><Array as="points"><mxPoint x="62" y="2461.6666666666665"/><mxPoint x="234" y="2428.333333333333"/></Array></mxGeometry></mxCell><mxCell id="ToDoApiCB50405F|ToDoApiANYApiPermissionCdkTaStackToDoApi27093C08ANYC1C44B3B" value="SourceArn" style="edgeStyle=orthogonalEdgeStyle;rounded=1;orthogonalLoop=1;jettySize=auto;html=1;labelBackgroundColor=none;fontColor=#EA6B66;noEdgeStyle=1;orthogonal=1;" edge="1" parent="1" source="57" target="48"><mxGeometry relative="1" as="geometry"><Array as="points"><mxPoint x="62" y="2388.3333333333335"/><mxPoint x="150" y="2500"/><mxPoint x="400" y="2500"/><mxPoint x="400" y="2600"/><mxPoint x="650" y="2600"/><mxPoint x="730" y="2600.0000000000005"/></Array></mxGeometry></mxCell><mxCell id="ToDoApiDeploymentStageprod6F950C85|ToDoApiANYApiPermissionCdkTaStackToDoApi27093C08ANYC1C44B3B" value="SourceArn" style="edgeStyle=orthogonalEdgeStyle;rounded=1;orthogonalLoop=1;jettySize=auto;html=1;labelBackgroundColor=none;fontColor=#EA6B66;noEdgeStyle=1;orthogonal=1;" edge="1" parent="1" source="57" target="52"><mxGeometry relative="1" as="geometry"><Array as="points"><mxPoint x="62" y="2361.6666666666665"/><mxPoint x="238" y="2235"/></Array></mxGeometry></mxCell><mxCell id="ApiLambda91D2282D|ToDoApiANYApiPermissionCdkTaStackToDoApi27093C08ANYC1C44B3B" value="FunctionName" style="edgeStyle=orthogonalEdgeStyle;rounded=1;orthogonalLoop=1;jettySize=auto;html=1;labelBackgroundColor=none;fontColor=#EA6B66;noEdgeStyle=1;orthogonal=1;" edge="1" parent="1" source="57" target="47"><mxGeometry relative="1" as="geometry"><Array as="points"><mxPoint x="64" y="2375"/><mxPoint x="234" y="2421.6666666666665"/></Array></mxGeometry></mxCell><mxCell id="ToDoApiCB50405F|ToDoApiANYApiPermissionTestCdkTaStackToDoApi27093C08ANYA9A1831C" value="SourceArn" style="edgeStyle=orthogonalEdgeStyle;rounded=1;orthogonalLoop=1;jettySize=auto;html=1;labelBackgroundColor=none;fontColor=#EA6B66;noEdgeStyle=1;orthogonal=1;" edge="1" parent="1" source="58" target="48"><mxGeometry relative="1" as="geometry"><Array as="points"><mxPoint x="62" y="2585"/><mxPoint x="150" y="2750"/><mxPoint x="400" y="2750"/><mxPoint x="400" y="2750"/><mxPoint x="650" y="2750"/><mxPoint x="736" y="2616.6666666666674"/></Array></mxGeometry></mxCell><mxCell id="ApiLambda91D2282D|ToDoApiANYApiPermissionTestCdkTaStackToDoApi27093C08ANYA9A1831C" value="FunctionName" style="edgeStyle=orthogonalEdgeStyle;rounded=1;orthogonalLoop=1;jettySize=auto;html=1;labelBackgroundColor=none;fontColor=#EA6B66;noEdgeStyle=1;orthogonal=1;" edge="1" parent="1" source="58" target="47"><mxGeometry relative="1" as="geometry"><Array as="points"><mxPoint x="62" y="2565"/><mxPoint x="236" y="2434.9999999999995"/></Array></mxGeometry></mxCell><mxCell id="ToDoApiCB50405F|ToDoApiANY51A8D247" value="RestApiId&#xA;ResourceId" style="edgeStyle=orthogonalEdgeStyle;rounded=1;orthogonalLoop=1;jettySize=auto;html=1;labelBackgroundColor=none;fontColor=#EA6B66;noEdgeStyle=1;orthogonal=1;" edge="1" parent="1" source="59" target="48"><mxGeometry relative="1" as="geometry"><Array as="points"><mxPoint x="62" y="2685"/><mxPoint x="150" y="2800"/><mxPoint x="400" y="2800"/><mxPoint x="400" y="2800"/><mxPoint x="650" y="2800"/><mxPoint x="738" y="2622.222222222223"/></Array></mxGeometry></mxCell><mxCell id="ApiLambda91D2282D|ToDoApiANY51A8D247" value="Uri" style="edgeStyle=orthogonalEdgeStyle;rounded=1;orthogonalLoop=1;jettySize=auto;html=1;labelBackgroundColor=none;fontColor=#EA6B66;noEdgeStyle=1;orthogonal=1;" edge="1" parent="1" source="59" target="47"><mxGeometry relative="1" as="geometry"><Array as="points"><mxPoint x="62" y="2665"/><mxPoint x="238" y="2441.666666666666"/></Array></mxGeometry></mxCell></root></mxGraphModel>
            </diagram>
          </mxfile>